<?xml version="1.0" encoding="UTF-8" standalone="no"?>
<!-- Generator: Adobe Illustrator 19.0.0, SVG Export Plug-In . SVG Version: 6.00 Build 0)  -->

<svg
   xmlns:dc="http://purl.org/dc/elements/1.1/"
   xmlns:cc="http://creativecommons.org/ns#"
   xmlns:rdf="http://www.w3.org/1999/02/22-rdf-syntax-ns#"
   xmlns:svg="http://www.w3.org/2000/svg"
   xmlns="http://www.w3.org/2000/svg"
   xmlns:sodipodi="http://sodipodi.sourceforge.net/DTD/sodipodi-0.dtd"
   xmlns:inkscape="http://www.inkscape.org/namespaces/inkscape"
   version="1.1"
   id="Capa_1"
   x="0px"
   y="0px"
   viewBox="0 0 470 470"
   style="enable-background:new 0 0 470 470;"
   xml:space="preserve"
   width="512"
   height="512"
   sodipodi:docname="icon-logo-light.svg"
   inkscape:version="0.92.4 (5da689c313, 2019-01-14)"><metadata
   id="metadata3811"><rdf:RDF><cc:Work
       rdf:about=""><dc:format>image/svg+xml</dc:format><dc:type
         rdf:resource="http://purl.org/dc/dcmitype/StillImage" /><dc:title></dc:title></cc:Work></rdf:RDF></metadata><defs
   id="defs3809" /><sodipodi:namedview
   pagecolor="#ffffff"
   bordercolor="#666666"
   borderopacity="1"
   objecttolerance="10"
   gridtolerance="10"
   guidetolerance="10"
   inkscape:pageopacity="0"
   inkscape:pageshadow="2"
   inkscape:window-width="1920"
   inkscape:window-height="1004"
   id="namedview3807"
   showgrid="false"
   inkscape:zoom="1"
   inkscape:cx="44"
   inkscape:cy="252.20192"
   inkscape:window-x="0"
   inkscape:window-y="0"
   inkscape:window-maximized="1"
   inkscape:current-layer="g3804" />
<g
   id="g3804"
   transform="translate(1.1619283,-6.9715698)">
	
	
	
	
	
	
	
	
	
	
	
<path
   id="path3782"
   d="m 460.42013,246.71759 c -4.14201,0 -7.50002,-3.35701 -7.50002,-7.49999 0,-38.635 -88.40101,-80.00002 -220.00002,-80.00002 -131.59901,0 -220.000014,41.36502 -220.000014,80.00002 0,4.14298 -3.3579998,7.49999 -7.4999998,7.49999 -4.142,0 -7.5,-3.35798 -7.5,-7.49999 0,-26.69299 25.3719998,-51.15202 71.4410028,-68.87198 C 113.16909,153.4966 171.25509,144.2176 232.92009,144.2176 c 61.665,0 119.75103,9.279 163.559,26.12802 46.06901,17.71996 71.44104,42.17899 71.44104,68.87198 0,4.14201 -3.35802,7.49999 -7.5,7.49999 z"
   style="display:inline;fill:#ffffff;fill-opacity:1;stroke-width:0.99999994"
   inkscape:connector-curvature="0" /><path
   id="path3784"
   d="m 119.16308,443.7396 c -1.27199,0 -2.56199,-0.32405 -3.74299,-1.00598 C 92.302082,429.3856 83.806082,395.18359 91.496078,346.4276 98.808076,300.06461 119.81509,245.12058 150.64809,191.71659 c 30.833,-53.40299 67.912,-99.068012 104.407,-128.582014 38.38,-31.037001 72.24702,-40.779984 95.36502,-27.434007 3.587,2.071007 4.81599,6.658018 2.74499,10.245017 -2.07198,3.587 -6.65799,4.813013 -10.24499,2.74499 C 309.46409,29.371598 229.43609,85.250588 163.63809,199.21759 97.839077,313.1856 89.462083,410.42662 122.92008,429.74362 c 3.587,2.071 4.816,6.65798 2.74501,10.24498 -1.38901,2.40702 -3.91,3.751 -6.50201,3.751 z"
   style="display:inline;fill:#2a569f;fill-opacity:1;stroke-width:0.99999994"
   inkscape:connector-curvature="0" /><path
   id="path3786"
   d="m 327.54508,448.56462 c -20.43099,0.002 -45.32899,-11.29902 -72.48999,-33.264 -36.495,-29.51501 -73.574,-75.17903 -104.407,-128.58302 -30.833,-53.40399 -51.840014,-108.34799 -59.152012,-154.71 -7.688997,-48.756999 0.807005,-82.959008 23.924012,-96.306025 3.587,-2.070001 8.17399,-0.842982 10.245,2.745024 2.07099,3.587 0.84199,8.173976 -2.74501,10.244983 -17.11199,9.879992 -23.166003,39.396006 -16.607,80.978998 7.03201,44.58803 27.391,97.69802 57.32501,149.54703 57.217,99.10301 125.197,154.27898 163.95501,154.28499 5.81298,9.2e-4 10.96299,-1.23899 15.32701,-3.75898 3.587,-2.07 8.17402,-0.84302 10.24499,2.74498 2.071,3.587 0.84201,8.17402 -2.74499,10.24502 -6.757,3.902 -14.43702,5.831 -22.87503,5.831 z"
   style="display:inline;fill:#0095a8;fill-opacity:1;stroke-width:0.99999994"
   inkscape:connector-curvature="0" /><path
   id="path3788"
   d="m 232.92009,334.2176 c -61.666,0 -119.75201,-9.27901 -163.559011,-26.12799 -46.069003,-17.71902 -71.4410028,-42.17902 -71.4410028,-68.87201 0,-4.14299 3.358,-7.49999 7.5,-7.49999 4.142,0 7.4999998,3.357 7.4999998,7.49999 0,38.63501 88.401004,80.00002 220.000014,80.00002 131.59901,0 220.00002,-41.36501 220.00002,-80.00002 0,-4.14299 3.35801,-7.49999 7.50002,-7.49999 4.14198,0 7.5,3.357 7.5,7.49999 0,26.69299 -25.37203,51.15299 -71.44104,68.87201 -43.80697,16.84898 -101.893,26.12799 -163.559,26.12799 z"
   style="display:inline;fill:#ffffff;fill-opacity:1;stroke-width:0.99999994"
   inkscape:connector-curvature="0" /><circle
   r="20"
   id="circle3790"
   cy="189.27203"
   cx="47.317078"
   style="display:inline;fill:#f2484b;fill-opacity:1;stroke-width:0.99999994" /><circle
   r="19.997"
   id="circle3792"
   cy="425.96738"
   cx="282.86908"
   style="display:inline;fill:#f2484b;stroke-width:0.99999994" /><circle
   r="19.997"
   id="circle3794"
   cy="102.75801"
   cx="96.266083"
   style="display:inline;fill:#f2484b;fill-opacity:1;stroke-width:0.99999994" /><path
   id="path3798"
   d="m 138.29508,448.56462 c -8.43999,0 -16.11599,-1.928 -22.87499,-5.83003 -3.587,-2.07097 -4.816,-6.65798 -2.74501,-10.24498 2.07101,-3.58801 6.658,-4.81599 10.245,-2.74499 33.45801,19.31998 113.48301,-36.56001 179.28201,-150.526 29.93499,-51.84901 50.29301,-104.95904 57.32501,-149.54703 6.55799,-41.582996 0.50501,-71.099009 -16.60699,-80.979001 -3.587,-2.071008 -4.81603,-6.657984 -2.74502,-10.245018 2.07101,-3.587971 6.65802,-4.815997 10.24502,-2.74499 23.118,13.347017 31.61401,47.549026 23.92399,96.306019 -7.31198,46.36198 -28.319,101.30601 -59.15201,154.71 -30.833,53.404 -67.912,99.06802 -104.407,128.58299 -27.159,21.962 -52.06,33.26303 -72.49001,33.26303 z"
   style="display:inline;fill:#2a569f;fill-opacity:1;stroke-width:0.99999994"
   inkscape:connector-curvature="0" /><path
   id="path3800"
   d="m 346.67712,443.7396 c -2.59202,0 -5.11302,-1.34499 -6.50203,-3.751 -2.07101,-3.587 -0.84198,-8.17398 2.74502,-10.24498 33.45798,-19.317 25.08101,-116.55903 -40.71802,-230.52603 -65.799,-113.967002 -145.824,-169.842002 -179.28201,-150.526008 -3.587,2.068995 -8.17399,0.843016 -10.245,-2.74499 -2.07099,-3.586999 -0.84199,-8.17401 2.74501,-10.245017 23.119,-13.347989 56.986,-3.604 95.365,27.434007 36.496,29.514002 73.575,75.179028 104.407,128.582018 30.83301,53.40399 51.84003,108.34802 59.15201,154.71101 7.68902,48.75599 -0.80699,82.95799 -23.92399,96.30598 -1.18101,0.68102 -2.47101,1.00501 -3.74299,1.00501 z"
   style="display:inline;fill:#0095a8;fill-opacity:1;stroke-width:0.99999994"
   inkscape:connector-curvature="0" /><circle
   r="19.997"
   id="circle3802"
   cy="102.75801"
   cx="369.57407"
   style="display:inline;fill:#f2484b;fill-opacity:1;stroke-width:0.99999994" /><text
   xml:space="preserve"
   style="font-style:normal;font-variant:normal;font-weight:normal;font-stretch:normal;font-size:97.91665649px;line-height:1.25;font-family:'Liberation Sans';-inkscape-font-specification:'Liberation Sans';letter-spacing:0px;word-spacing:0px;display:inline;fill:#ffffff;fill-opacity:1;stroke:none;stroke-width:0.91796875;"
   x="185.13431"
   y="287.32996"
   id="text868"><tspan
     sodipodi:role="line"
     x="185.13431"
     y="287.32996"
     id="tspan866"
     style="stroke-width:0.91796875;fill:#ffffff;fill-opacity:1;"><tspan
       x="185.13431"
       y="287.32996"
       style="font-size:172.57809448px;fill:#ffffff;fill-opacity:1;stroke-width:0.91796875;"
       id="tspan864">e</tspan></tspan></text>


</g>















</svg>